<?xml version="1.0" encoding="utf-8"?>
<!-- Generator: Adobe Illustrator 16.0.3, SVG Export Plug-In . SVG Version: 6.00 Build 0)  -->
<!DOCTYPE svg PUBLIC "-//W3C//DTD SVG 1.1//EN" "http://www.w3.org/Graphics/SVG/1.1/DTD/svg11.dtd">
<svg version="1.1" id="Bundesadler_1_" xmlns="http://www.w3.org/2000/svg" xmlns:xlink="http://www.w3.org/1999/xlink" x="0px"
	 y="0px" width="1000px" height="945px" viewBox="0 0 1000 945" enable-background="new 0 0 1000 945" xml:space="preserve">
<path id="Bundesadler__x28_Hexagonal_x29__Kontur" fill="#FFFFFF" d="M992.763,475.521c-21.576,2.734-37.92-26.272-37.92-26.272
	L824.204,212.292c0,0,9.267-101.572-80.909-138.732c0,0-3.091-6.193-7.411-6.193c-2.399,0,13.075-13.925,14.236-14.91
	c12.933-17.076-22.139-0.862-22.139-0.862s-12.756,4.677-22.034-0.249c-9.277-4.926-30.021-3.832-30.021-3.832
	c-42.028,0-52.944,17.342-52.944,17.342c-5.457,8.21-10.989,11.926-10.989,11.926c-8.731,2.736-4.538,6.005-4.538,6.005
	c7.098-3.832,14.422,9.175,14.422,9.175s25.123,37.65,57.873,37.65c13.839,0,27.836-8.757,27.836-8.757s31.657,11.494,31.657,68.416
	c0,56.921-61.018,125.769-147.258,125.769c0,0-6.119,2.304-6.119-19.589c0-31.486,5.178-19.354-20.402-31.823
	c0.036,0.093-0.363-0.167-1.445-0.714c0.493,0.248,0.974,0.483,1.445,0.714c-0.135-0.356-6.702-5.943-6.702-21.123v-41.251
	c0,0,23.577-85.927,23.577-112.61s-10.375-47.035-10.375-47.035s-3.157-11.762,1.805-14.023c0,0,15.637-10.093,15.637-20.947
	c0,0,3.009-13.87-7.366-1.512c0,0-2.091,9.347-38.171,9.347c0,0-51.732-3.527-67.97-8.592c-16.236-5.066-9.318,6.63-9.318,6.63
	s1.013,7.77-19.095,2.866c-16.688-4.07-30.37,13.592-30.37,24.433c0,0,0.139,24.479,6.467,36.169c0,0,4.061,3.166,9.923-14.473
	c0,0,4.211-11.306,24.958,5.427c0,0,37.584,24.724,16.386,24.724c-40.741,0-66.149-13.417-66.149-13.417s-13.98-6.784-5.412,1.809
	c8.569,8.594,16.688,21.255,66.75,31.658c20.687,4.298-3.607,4.522-13.08,4.522c0,0-31.42,2.409-39.538-7.089
	c0,0-6.855,1.326,1.469,10.102c16.616,17.522,41.256,32.037,51.464,33.02c15.627,1.505,17.226,6.089,12.33,10.804
	c-22.531,21.7-45.956,72.196-45.956,72.196c-5.457,16.74-5.894,22.932-14.316,27.651c0.011-0.006-21.848,10.645-21.848,32.537
	c0,21.892-6.118,15.354-6.118,15.354c-86.24,0-147.258-67.032-147.258-123.954c0-56.921,36.125-72.288,36.125-72.288
	s13.998,8.757,27.836,8.757c32.75,0,53.538-34.475,53.538-34.475s9.288-5.876,13.362-5.769c17.286,0.455-14.47-19.825-14.47-19.825
	s-32.785-18.25-52.341-18.25c0,0-20.74-1.095-30.02,3.831s-22.639-0.356-22.639-0.356s-35.141-16.247-22.105,0.908
	c-1.725-1.613,14.354,17.975,11.746,17.975c-4.321,0-7.412,6.193-7.412,6.193c-90.176,37.16-78.583,138.74-78.583,138.74
	L31.586,449.25C17.825,474.211,0,475.521,0,475.521c0,9.802,18.498,15.898,26.691,15.898c8.188,0,27.813,4.883,50.011-34.02
	l94.825-170.706c0,0,5.428-9.912,8.332,1.739c2.904,11.652,0.316,14.687,0.316,14.687L65.067,505.811c0,0-11.47,15.466-23.533,20.39
	c-12.064,4.924-7.096,17.916,8.733,20.104c15.83,2.189,34.776,2.181,48.984-22.783L198.41,348.55c0,0,2.667-8.8,6.733-5.304
	c4.067,3.495,3.767,13.355,3.767,13.355l-97.62,177.764c-20.999,37.158-39.702,49.573-39.702,49.573
	c-10.76-0.59-6.105,16.753,16.129,16.753c36.461,0,54.77-40.935,54.77-40.935l97.218-173.55c0,0,2.324-7.876,6.392-0.303
	c4.066,7.573,2.807,9.056,2.807,9.056L142.11,588.076c-30.007,50.528-46.28,50.455-46.28,50.455s3.767,16.698,23.157,16.698
	c30.266,0,39.269-22.362,39.269-22.362L280.371,419.4c0,0,3.207-5.84,7.536-3.221c4.329,2.617,2.346,8.178,2.346,8.178
	L165.93,653.576c-22.853,37.16-40.876,35.633-40.876,35.633c-0.768,7.826,15.961,14.83,22.92,14.83
	c37.143,0,49.029-29.348,49.029-29.348l126.05-222.992c0,0,5.246-14.244,12.76-11.781c10.221,3.35-0.905,17.022-0.905,17.022
	S224.8,661.908,207.504,693.496c-17.295,31.584-39.779,48.053-39.779,48.053c-19.765,8.674-8.332,13.008-8.332,13.008
	c41.383,29.107,74.203-28.869,74.203-28.869l132.117-233.118c21.563-39.748,20.182-48.14,38.478-49.38
	c18.296-1.239,13.668-0.464,20.45,19.156c11.505,33.285,4.035,50.459,4.035,50.459c-46.549,87.148-108.167,123.308-108.167,123.308
	c1.545,4.559,10.171,10.774,22.333,8.907c29.868-4.59,17.37,10.574,17.37,10.574l-56.772,98.039
	c-3.412,10.506-8.219,21.152-19.427,25.047c-10.147,3.525-19.201-1.51-43.931-1.51c-22.434,0-33.393,0.871-33.393,0.871
	c-9.305,0-12.899,16.832-12.899,26.162c0,9.335,14.433,28.648,15.796,37.448c0.458,2.955,6.806-7.482,6.806-7.482
	c-0.619-14.927,3.103-12.439,3.103-12.439c5.808,0,7.107,5.055,11.155,5.055c4.05,0,10.037-5.117,20.974-12.097
	c19.377-12.362,4.308,6.525,4.308,6.525s-12.347,13.543-24.754,25.36c-12.408,11.819-4.342,19.905-4.342,19.905
	c17.575,32.536,26.407,41.612,26.407,41.612c5.648,0,2.421-3.238,2.421-3.238c-3.229,0-2.691-7.284-2.691-7.284v-10.341
	c0-9.953,11.435-6.542,11.435-6.542c8.022,0,6.863-8.75,6.863-8.75l6.422-25.262c3.575-20.069,8.721-18.664,8.721-18.664
	l0.044,60.569c0.887,0.233,9.965,3.251,44.279,26.257c0,0,6.797,2.856-1.887-11.452c-8.685-14.306-3.83-15.519-3.83-15.519
	c10.546-6.846,3.606-21.39,3.606-21.39s-4.751-7.994-15.917-34.745c-11.167-26.747,6.253-34.988,6.253-34.988h15.439
	c54.592,0,46.92,4.139,46.049,10.489c-4.51,32.858,9.417,9.238,9.417,9.238c3.103-13.063,18.758-29.142,18.758-29.142
	c12.79-12.806-4.433-23.326-11.966-33.039c-7.532-9.715-14.268-4.978-14.268-4.978l-46.274,23.322
	c-8.064-11.195,51.934-80.133,51.934-80.133c11.166-11.816,12.39-4.391,12.39-4.391c1.862,12.442,10.882,26.733,10.882,26.733
	c13.648,18.66,10.563-12.608,10.563-12.608c0-27.543,18.912-65.705,18.912-65.705c14.27-18.037,12.408,4.979,12.408,4.979
	c0,153.027-4.884,262.263-88.314,262.263c0,0,5.512,36.21,45.494,36.21c18.609,0,50.885-24.262,50.885-24.262
	S489.182,945,495.385,945c6.204,0,29.777-29.277,29.777-29.277s29.157,24.263,47.77,24.263c34.739,0,53.972-31.724,53.972-31.724
	c-91.194,0-93.677-109.488-93.677-262.514c0,0-1.86-23.018,12.408-4.979c0,0,17.706,26.298,17.706,62.38
	c0,0-3.087,31.27,10.563,12.604c0,0,8.953-10.91,10.814-23.352c0,0,1.224-7.431,12.39,4.387c0,0,66.398,73.369,58.333,84.566
	l-50.871-27.992c0,0-5.582-4.976-14.268,4.977c0,0-21.092,16.799-10.547,32.971c0,0,14.889,18.038,17.989,31.104
	c0,0,3.103,8.086,3.103-9.331c0,0-5.513-10.843,49.079-10.843h15.438c0,0,17.99,2.135,6.823,28.884
	c-11.166,26.749-16.412,42.016-16.412,42.016s-8.082,11.835,2.463,18.679c0,0,7.711,1.832-0.973,16.139
	c-8.686,14.309,1.61,15.502,1.61,15.502s41.85-26.684,41.85-35.392c0,0,2.127-14.96-2.215-26.781v-33.273
	c0,0-0.569-12.439,8.117,18.664l11.77,29.713c0,0-0.305,7.609,10.244,12.589c0,0,6.203,0.354,6.203,10.308v10.339
	c0,0-4.059,13.53,12.071-15.974c0,0,7.779-18.981,13.362-22.095c0,0,8.065-8.083-4.341-19.902
	c-12.408-11.821-32.88-32.971-32.88-32.971s-13.647-19.283,3.103-6.221c16.748,13.063,40.322,16.173,40.322,16.173
	s3.721-2.487,3.103,12.441c0,0,1.859,8.089,6.202,8.089c0,0,19.854-34.84,19.854-44.17s-12.742-27.24-22.049-27.24l-55.496,6.428
	c0,0-16.784,6.777-32.31-25.891l-60.127-100.104c0,0-11.784-19.912,17.371-10.576c11.72,3.754,21.411,0.018,22.955-4.539
	c0,0-72.583-49.578-113.528-134.806c0,0-5.317-7.768,6.188-41.055c6.782-19.621,1.375-23.299,19.671-22.058
	c18.296,1.24,18.376,7.329,39.942,47.075l132.447,235.969c0,0,37.06,56.979,78.44,27.869c0,0,11.433-4.336-8.331-13.005
	c0,0-16.372-3.1-33.667-34.688C769.852,676.792,648.055,459.1,648.055,459.1s-11.798-14.861-1.206-16.72
	c10.591-1.857,13.062,11.479,13.062,11.479l125.384,222.313c0,0,16.057,34.066,53.115,31.586
	c19.961-1.334,23.733-10.725,22.966-18.551c0,0-18.022,1.527-40.875-35.633L698.823,432.773c0,0-5.396-8.432-0.053-9.705
	c5.345-1.275,9.934,4.75,9.934,4.75l116.737,208.098c0,0,11.734,22.918,41.998,22.918c30.265,0,27.176-15.512,27.176-15.512
	s-24.071-6.472-46.926-44.867L739.284,404.902c0,0-3.807-6.107-0.03-9.785c3.775-3.678,10.834,4.215,10.834,4.215l92.646,161.029
	c0,0,22.834,43.354,59.294,43.354c22.235,0,26.89-17.342,16.131-16.752c0,0-22.927-14.838-43.926-51.996L780.971,363.41
	c0,0-3.827-8.433,0.182-11.602c4.008-3.169,10.318,3.55,10.318,3.55l95.706,168.161c14.208,24.964,35.462,28.08,51.291,25.894
	c15.831-2.191,20.195-10.949,8.131-15.875c-12.063-4.926-26.144-26.818-26.144-26.818L811.289,311.324c0,0-4.735-7.109-1.025-13.063
	c3.709-5.953,10.852,4.853,10.852,4.853l88.008,155.194c22.198,38.898,56.091,34.729,64.278,34.729
	C981.589,493.037,1014.338,472.783,992.763,475.521z"/>
<path id="Bundesadler__x28_Hexagonal_x29_" d="M992.763,475.521c-21.576,2.734-37.92-26.272-37.92-26.272L824.204,212.292
	c0,0,9.267-101.572-80.909-138.732c0,0-3.091-6.193-7.411-6.193c-2.399,0,13.075-13.925,14.236-14.91
	c12.933-17.076-22.139-0.862-22.139-0.862s-12.756,4.677-22.034-0.249c-9.277-4.926-30.021-3.832-30.021-3.832
	c-42.028,0-52.944,17.342-52.944,17.342c-5.457,8.21-10.989,11.926-10.989,11.926c-8.731,2.736-4.538,6.005-4.538,6.005
	c7.098-3.832,14.422,9.175,14.422,9.175s25.123,37.65,57.873,37.65c13.839,0,27.836-8.757,27.836-8.757s31.657,11.494,31.657,68.416
	c0,56.921-61.018,125.769-147.258,125.769c0,0-6.119,2.304-6.119-19.589c0-31.486,5.178-19.354-20.402-31.823
	c0.036,0.093-0.363-0.167-1.445-0.714c0.493,0.248,0.974,0.483,1.445,0.714c-0.135-0.356-6.702-5.943-6.702-21.123v-41.251
	c0,0,23.577-85.927,23.577-112.61s-10.375-47.035-10.375-47.035s-3.157-11.762,1.805-14.023c0,0,15.637-10.093,15.637-20.947
	c0,0,3.009-13.87-7.366-1.512c0,0-2.091,9.347-38.171,9.347c0,0-51.732-3.527-67.97-8.592c-16.236-5.066-9.318,6.63-9.318,6.63
	s1.013,7.77-19.095,2.866c-16.688-4.07-30.37,13.592-30.37,24.433c0,0,0.139,24.479,6.467,36.169c0,0,4.061,3.166,9.923-14.473
	c0,0,4.211-11.306,24.958,5.427c0,0,37.584,24.724,16.386,24.724c-40.741,0-66.149-13.417-66.149-13.417s-13.98-6.784-5.412,1.809
	c8.569,8.594,16.688,21.255,66.75,31.658c20.687,4.298-3.607,4.522-13.08,4.522c0,0-31.42,2.409-39.538-7.089
	c0,0-6.855,1.326,1.469,10.102c16.616,17.522,41.256,32.037,51.464,33.02c15.627,1.505,17.226,6.089,12.33,10.804
	c-22.531,21.7-45.956,72.196-45.956,72.196c-5.457,16.74-5.894,22.932-14.316,27.651c0.011-0.006-21.848,10.645-21.848,32.537
	c0,21.892-6.118,15.354-6.118,15.354c-86.24,0-147.258-67.032-147.258-123.954c0-56.921,36.125-72.288,36.125-72.288
	s13.998,8.757,27.836,8.757c32.75,0,53.538-34.475,53.538-34.475s9.288-5.876,13.362-5.769c17.286,0.455-14.47-19.825-14.47-19.825
	s-32.785-18.25-52.341-18.25c0,0-20.74-1.095-30.02,3.831s-22.639-0.356-22.639-0.356s-35.141-16.247-22.105,0.908
	c-1.725-1.613,14.354,17.975,11.746,17.975c-4.321,0-7.412,6.193-7.412,6.193c-90.176,37.16-78.583,138.74-78.583,138.74
	L31.586,449.25C17.825,474.211,0,475.521,0,475.521c0,9.802,18.498,15.898,26.691,15.898c8.188,0,27.813,4.883,50.011-34.02
	l94.825-170.706c0,0,5.428-9.912,8.332,1.739c2.904,11.652,0.316,14.687,0.316,14.687L65.067,505.811c0,0-11.47,15.466-23.533,20.39
	c-12.064,4.924-7.096,17.916,8.733,20.104c15.83,2.189,34.776,2.181,48.984-22.783L198.41,348.55c0,0,2.667-8.8,6.733-5.304
	c4.067,3.495,3.767,13.355,3.767,13.355l-97.62,177.764c-20.999,37.158-39.702,49.573-39.702,49.573
	c-10.76-0.59-6.105,16.753,16.129,16.753c36.461,0,54.77-40.935,54.77-40.935l97.218-173.55c0,0,2.324-7.876,6.392-0.303
	c4.066,7.573,2.807,9.056,2.807,9.056L142.11,588.076c-30.007,50.528-46.28,50.455-46.28,50.455s3.767,16.698,23.157,16.698
	c30.266,0,39.269-22.362,39.269-22.362L280.371,419.4c0,0,3.207-5.84,7.536-3.221c4.329,2.617,2.346,8.178,2.346,8.178
	L165.93,653.576c-22.853,37.16-40.876,35.633-40.876,35.633c-0.768,7.826,15.961,14.83,22.92,14.83
	c37.143,0,49.029-29.348,49.029-29.348l126.05-222.992c0,0,5.246-14.244,12.76-11.781c10.221,3.35-0.905,17.022-0.905,17.022
	S224.8,661.908,207.504,693.496c-17.295,31.584-39.779,48.053-39.779,48.053c-19.765,8.674-8.332,13.008-8.332,13.008
	c41.383,29.107,74.203-28.869,74.203-28.869l132.117-233.118c21.563-39.748,20.182-48.14,38.478-49.38
	c18.296-1.239,13.668-0.464,20.45,19.156c11.505,33.285,4.035,50.459,4.035,50.459c-46.549,87.148-108.167,123.308-108.167,123.308
	c1.545,4.559,10.171,10.774,22.333,8.907c29.868-4.59,17.37,10.574,17.37,10.574l-56.772,98.039
	c-3.412,10.506-8.219,21.152-19.427,25.047c-10.147,3.525-19.201-1.51-43.931-1.51c-22.434,0-33.393,0.871-33.393,0.871
	c-9.305,0-12.899,16.832-12.899,26.162c0,9.335,14.433,28.648,15.796,37.448c0.458,2.955,6.806-7.482,6.806-7.482
	c-0.619-14.927,3.103-12.439,3.103-12.439c5.808,0,7.107,5.055,11.155,5.055c4.05,0,10.037-5.117,20.974-12.097
	c19.377-12.362,4.308,6.525,4.308,6.525s-12.347,13.543-24.754,25.36c-12.408,11.819-4.342,19.905-4.342,19.905
	c17.575,32.536,26.407,41.612,26.407,41.612c5.648,0,2.421-3.238,2.421-3.238c-3.229,0-2.691-7.284-2.691-7.284v-10.341
	c0-9.953,11.435-6.542,11.435-6.542c8.022,0,6.863-8.75,6.863-8.75l6.422-25.262c3.575-20.069,8.721-18.664,8.721-18.664
	l0.044,60.569c0.887,0.233,9.965,3.251,44.279,26.257c0,0,6.797,2.856-1.887-11.452c-8.685-14.306-3.83-15.519-3.83-15.519
	c10.546-6.846,3.606-21.39,3.606-21.39s-4.751-7.994-15.917-34.745c-11.167-26.747,6.253-34.988,6.253-34.988h15.439
	c54.592,0,46.92,4.139,46.049,10.489c-4.51,32.858,9.417,9.238,9.417,9.238c3.103-13.063,18.758-29.142,18.758-29.142
	c12.79-12.806-4.433-23.326-11.966-33.039c-7.532-9.715-14.268-4.978-14.268-4.978l-46.274,23.322
	c-8.064-11.195,51.934-80.133,51.934-80.133c11.166-11.816,12.39-4.391,12.39-4.391c1.862,12.442,10.882,26.733,10.882,26.733
	c13.648,18.66,10.563-12.608,10.563-12.608c0-27.543,18.912-65.705,18.912-65.705c14.27-18.037,12.408,4.979,12.408,4.979
	c0,153.027-4.884,262.263-88.314,262.263c0,0,5.512,36.21,45.494,36.21c18.609,0,50.885-24.262,50.885-24.262
	S489.182,945,495.385,945c6.204,0,29.777-29.277,29.777-29.277s29.157,24.263,47.77,24.263c34.739,0,53.972-31.724,53.972-31.724
	c-91.194,0-93.677-109.488-93.677-262.514c0,0-1.86-23.018,12.408-4.979c0,0,17.706,26.298,17.706,62.38
	c0,0-3.087,31.27,10.563,12.604c0,0,8.953-10.91,10.814-23.352c0,0,1.224-7.431,12.39,4.387c0,0,66.398,73.369,58.333,84.566
	l-50.871-27.992c0,0-5.582-4.976-14.268,4.977c0,0-21.092,16.799-10.547,32.971c0,0,14.889,18.038,17.989,31.104
	c0,0,3.103,8.086,3.103-9.331c0,0-5.513-10.843,49.079-10.843h15.438c0,0,17.99,2.135,6.823,28.884
	c-11.166,26.749-16.412,42.016-16.412,42.016s-8.082,11.835,2.463,18.679c0,0,7.711,1.832-0.973,16.139
	c-8.686,14.309,1.61,15.502,1.61,15.502s41.85-26.684,41.85-35.392c0,0,2.127-14.96-2.215-26.781v-33.273
	c0,0-0.569-12.439,8.117,18.664l11.77,29.713c0,0-0.305,7.609,10.244,12.589c0,0,6.203,0.354,6.203,10.308v10.339
	c0,0-4.059,13.53,12.071-15.974c0,0,7.779-18.981,13.362-22.095c0,0,8.065-8.083-4.341-19.902
	c-12.408-11.821-32.88-32.971-32.88-32.971s-13.647-19.283,3.103-6.221c16.748,13.063,40.322,16.173,40.322,16.173
	s3.721-2.487,3.103,12.441c0,0,1.859,8.089,6.202,8.089c0,0,19.854-34.84,19.854-44.17s-12.742-27.24-22.049-27.24l-55.496,6.428
	c0,0-16.784,6.777-32.31-25.891l-60.127-100.104c0,0-11.784-19.912,17.371-10.576c11.72,3.754,21.411,0.018,22.955-4.539
	c0,0-72.583-49.578-113.528-134.806c0,0-5.317-7.768,6.188-41.055c6.782-19.621,1.375-23.299,19.671-22.058
	c18.296,1.24,18.376,7.329,39.942,47.075l132.447,235.969c0,0,37.06,56.979,78.44,27.869c0,0,11.433-4.336-8.331-13.005
	c0,0-16.372-3.1-33.667-34.688C769.852,676.792,648.055,459.1,648.055,459.1s-11.798-14.861-1.206-16.72
	c10.591-1.857,13.062,11.479,13.062,11.479l125.384,222.313c0,0,16.057,34.066,53.115,31.586
	c19.961-1.334,23.733-10.725,22.966-18.551c0,0-18.022,1.527-40.875-35.633L698.823,432.773c0,0-5.396-8.432-0.053-9.705
	c5.345-1.275,9.934,4.75,9.934,4.75l116.737,208.098c0,0,11.734,22.918,41.998,22.918c30.265,0,27.176-15.512,27.176-15.512
	s-24.071-6.472-46.926-44.867L739.284,404.902c0,0-3.807-6.107-0.03-9.785c3.775-3.678,10.834,4.215,10.834,4.215l92.646,161.029
	c0,0,22.834,43.354,59.294,43.354c22.235,0,26.89-17.342,16.131-16.752c0,0-22.927-14.838-43.926-51.996L780.971,363.41
	c0,0-3.827-8.433,0.182-11.602c4.008-3.169,10.318,3.55,10.318,3.55l95.706,168.161c14.208,24.964,35.462,28.08,51.291,25.894
	c15.831-2.191,20.195-10.949,8.131-15.875c-12.063-4.926-26.144-26.818-26.144-26.818L811.289,311.324c0,0-4.735-7.109-1.025-13.063
	c3.709-5.953,10.852,4.853,10.852,4.853l88.008,155.194c22.198,38.898,56.091,34.729,64.278,34.729
	C981.589,493.037,1014.338,472.783,992.763,475.521z M692.129,76.911c-0.812,1.836-10.159,0.139-13.404,7.499
	c-3.245,7.36,2.643,10.028,1.811,11.914c-0.833,1.889-2.969,2.988-5.89,1.615c-2.205-1.036-4.087-2.485-5.577-4.194
	c-2.758-4.454-2.352-10.161-0.238-14.955c2.114-4.797,6.534-7.849,11.603-8.629c2.226,0.04,5.315-0.543,7.523,0.493
	C690.875,72.027,692.938,75.073,692.129,76.911z M152.507,282.785l-52.871,93.102c-11.342,19.872-49.972,88.41-57.31,82.152
	c-1.172-1,6.797-17.166,8.243-19.732l107.828-190.563c1.571-2.737,6.364-9.051,8.084,1.724
	C168.202,260.243,152.507,282.785,152.507,282.785z M247.344,804.604c-2.962,1.89-5.507,3.609-7.751,5.13
	c-1.905,1.288-4.239,3.756-8.45,3.756c-4.212,0-8.236-4.021-8.946-4.021c-3.006,0-12.858-20.358-11.363-22.389
	c2.148-0.146,13.29-1.049,31.044-1.049c9.656,0,21.815,0.303,27.474,0.303c12.366,0-5.544,12.828-5.544,12.828
	C259.108,801.446,253.481,800.689,247.344,804.604z M280.417,811.615l-16.79,54.17c-0.221-0.007-0.457-0.087-0.669-0.009
	c-8.536,3.169-19.38-1.813-22.473-7.536l-0.681-1.259l-3.303-3.747c0-0.403,0.461-2.132,3.378-4.909l35.443-41.797
	C275.325,806.528,285.175,796.259,280.417,811.615z M649.926,791.66c-24.657,5.385-36.849,5.813-40.825,5.813
	c-3.978,0-14.247-11.188-15.812-13.121c-4.399-7.727,3.857-14.721,3.991-14.829l0.705-0.568l0.636-0.717
	c0.948-1.086,1.694-1.748,2.216-2.142c0,0,46.938,19.558,50.501,22.845C654.899,792.226,649.926,791.66,649.926,791.66z
	 M712.149,793.732c2.559-0.222,28.147-4.357,22.034-3.919c0,0,36.187-2.684,36.384,1.644c0,9.455-11.338,24.065-14.573,24.065
	c-0.2,0-0.402,0.006-0.604,0.019c-4.933-0.871-10.704-0.82-22.752-10.219c-6.407-4.999-11.668-6.129-15.646-6.129
	C716.99,799.193,705.548,794.302,712.149,793.732z M703.703,811.656c3.857-1.289,15.002,11.604,15.002,11.604
	c0.854,0.858,17.937,17.94,29.969,36.057c3.591,5.402-20.11,15.645-20.11,15.645l-3.81-2.579c0,0-7.05-10.776-12.479-30.211
	l-7.286-19.341C704.99,822.831,699.848,812.946,703.703,811.656z M783.471,209.62c0.198-2.53,1.732-4.324,5.661-4.085
	c2.969,0.18,5.155,1.242,7.565,2.515c4.989,3.826,8.017,9.343,7.506,15.774c-0.504,6.428-4.82,11.635-10.358,14.823
	c-2.59,0.966-5.441,1.425-8.409,1.246c-3.932-0.239-4.105-2.73-3.91-5.193c0.192-2.462,6.43-0.944,7.207-10.81
	C789.511,214.022,783.271,212.15,783.471,209.62z M799.457,173.645c1.494,6.218-0.348,12.173-4.238,16.824
	c-1.975,1.68-3.777,3.116-6.433,3.826c-3.515,0.941-5.188-0.545-5.773-2.991c-0.59-2.448,5.852-5.325,3.556-14.867
	c-2.289-9.54-9.405-9.614-4.154-14.387c2.011-1.833,5.308-0.773,7.801-0.29C795.736,163.896,797.963,167.427,799.457,173.645z
	 M768.466,123.207c1.202-1.939,4.263-1.65,6.498-1.701c5.224,0.792,8.052,3.393,10.979,8.422c2.928,5.032,2.973,10.461,0.946,15.159
	c-1.215,1.803-2.35,3.364-4.4,4.464c-2.708,1.463-4.514,0.507-5.67-1.472c-1.151-1.98,3.507-5.641-0.989-13.361
	C771.335,126.996,765.321,128.265,768.466,123.207z M740.813,96.893c0.336-1.62,3.077-2.099,4.986-2.631
	c4.795-0.613,8.171,0.568,12.517,3.418c4.351,2.85,6.352,6.619,6.304,10.341c-0.396,1.524-0.81,2.864-2.176,4.086
	c-1.811,1.619-3.716,1.356-5.424,0.235c-1.713-1.122,0.98-4.706-5.692-9.079C744.656,98.892,739.929,101.112,740.813,96.893z
	 M710.164,83.382c-1.955-0.663-3.01-1.965-1.88-4.261c0.852-1.734,2.216-2.812,3.8-3.979c4.226-2.156,9.319-2.778,14.291-1.094
	c4.976,1.685,8.063,5.38,9.269,9.375c0.146,1.754-0.174,3.556-1.025,5.29c-1.133,2.296-3.144,1.864-5.05,1.218
	c-1.905-0.643,0.79-4.043-6.838-6.627C715.1,80.72,712.123,84.043,710.164,83.382z M547.885,101.133
	c3.021-0.712,10.029-1.742,8.011-5.76c-2.177-4.338,4.729-6.279,6.917-1.927c2.027,4.04,1.095,7.714-2.018,11.27
	c-2.563,2.925-5.858,2.607-9.563,3.48C546.506,109.311,543.156,102.249,547.885,101.133z M493.503,611.991
	c-7.654,4.371-17.091-36.642-24.393-65.109c0,0-1.351-2.897,1.277-4.354c3.825-2.125,4.166-0.305,4.166-0.305
	c7.153,15.699,15.549,31.236,19.553,27.763c3.439-2.982,9.609-13.769,15.192-25.892c0,0,1.016-2.383,2.53-0.151
	c1.517,2.231,1.313,4.764,1.313,4.764C506.704,573.077,497.474,609.726,493.503,611.991z M504.745,868.512
	c4.969-7.543,4.969-1.104,4.969-1.104c0,19.56-13.489,20.229-16.765,20.104c-3.276,0.126-16.765-0.544-16.765-20.104
	c0,0,0-6.439,4.968,1.104c0,0,4.048,6.468,11.797,6.468C500.698,874.979,504.745,868.512,504.745,868.512z M464.635,346.514
	c4.695-3.998,8.309-7.049,12.774-11.588c1.355-1.378,3.007-3.774,4.298-3.043c1.471,0.357,0.863,1.517,0.753,3.51
	c-0.351,6.311-3.084,12.015-6.333,17.244c-4.48,7.215-8.098,14.355-12.352,21.715c-1.786,3.092-3.646,1.861-4.675-0.68
	c-6.812-10.975-11.001-26.291-10.76-39.141c0.073-3.971,2.989-4.705,4.789-2.191c0.739,0.607,1.239,1.534,1.23,2.791
	c-0.021,3.469,4.061,6.682,6.483,8.634C462.056,344.74,463.325,345.654,464.635,346.514z M461.916,320.684
	c0-3.096,2.506-5.606,5.592-5.606c3.089,0,5.592,2.51,5.592,5.606c0,3.098-2.503,5.607-5.592,5.607
	C464.422,326.291,461.916,323.781,461.916,320.684z M496.753,402.152c3.438-2.438,7.42-9.178,12.049-19.08
	c0,0,4.657-2.831,5.912-1.009c1.258,1.821-0.008,4.637-0.008,4.637c-5.333,19.902-14.587,47.905-18.559,49.759
	c-7.653,3.566-14.595-25.185-20.644-48.435c0,0-1.12-2.368,1.057-3.558c3.169-1.732,3.452-0.247,3.452-0.247
	C485.94,397.041,492.748,404.987,496.753,402.152z M486.508,367.357c0-3.097,2.505-5.606,5.593-5.606s5.591,2.51,5.591,5.606
	c0,3.098-2.503,5.607-5.591,5.607S486.508,370.455,486.508,367.357z M491.799,266.044c3.088,0,5.591,2.511,5.591,5.607
	c0,3.096-2.503,5.607-5.591,5.607c-3.087,0-5.593-2.511-5.593-5.607C486.206,268.555,488.712,266.044,491.799,266.044z
	 M491.656,175.806c1.936,1.766,4.432,2.966,6.371,4.72c2.045,1.848,2.896,1.379,4.839-0.612c3.401-3.487,8.726,1.857,5.327,5.341
	c-3.191,3.275-7.504,5.464-11.948,3.195c-3.676-1.877-6.022-5.484-9.011-8.211C483.635,176.955,488.073,172.536,491.656,175.806z
	 M496.474,224.516c-2.011-6.257-2.654-14.053-2.366-20.611c0.245-5.621,3.66-5.136,4.175-0.345c0.185,1.705,0.431,3.394,0.709,5.077
	c0.512,4.133,4.403,4.578,7.354,2.327c1.45-1.238,2.818-2.568,4.025-4.086c2.656-3.343,6.983,1.163,4.408,4.577
	c-0.19,0.254-8.967,10.878-14.583,15.017C498.142,227.985,497.153,226.634,496.474,224.516z M543.235,221.634
	c3.418,3.468-1.907,8.812-5.326,5.341c-3.707-3.763-7.271-8.35-6.73-13.957c0.199-2.049,1.563-3.777,3.768-3.777
	c1.903,0,3.966,1.724,3.767,3.777C538.361,216.638,540.862,219.223,543.235,221.634z M542.423,190.125
	c-3.083,0.085-6.165,1.758-9.272,1.354c-4.441-0.578-4.639-1.799-5.188-6.128c-0.262-2.048,0.102-4.382,1.957-4.382
	c2.249,0,3.507,0.828,3.766,2.87c0.004,0.041-0.002,0.044,0,0.074c0.633-0.009,1.235-0.071,1.88-0.209
	c2.269-0.491,4.526-1.067,6.858-1.133C547.285,182.436,547.273,189.991,542.423,190.125z M536.334,162.056
	c-2.961,2.786-6.479,4.864-10.675,4.152c-3.874-0.657-6.943-3.363-9.659-6.033c-3.475-3.414,1.854-8.753,5.325-5.34
	c1.338,1.313,3,3.232,4.882,3.762c2.022,0.569,3.347-0.514,4.801-1.881C534.545,153.385,539.883,158.716,536.334,162.056z
	 M505.657,247.771c0.549,0.98,1.061,1.982,1.557,2.996c2.07,2.148,3.96,2.027,5.174,2.627c3.559,1.762,6.022-3.599,8.268-5.805
	c3.114-3.063,7.011-0.397,5.011,3.367c-3.739,7.041-6.42,14.421-7.746,22.298c-0.446,2.643-4.616,3.83-6.297,1.667
	c-5.528-7.115-6-15.558-10.358-23.337C498.882,247.332,503.277,243.524,505.657,247.771z M521.125,317.196
	c3.089,0,5.591,2.51,5.591,5.606c0,3.096-2.502,5.607-5.591,5.607c-3.088,0-5.593-2.512-5.593-5.607
	C515.532,319.706,518.037,317.196,521.125,317.196z M512.592,344.516c0.484,0.307,0.923,0.751,1.262,1.396
	c3.322,6.352,9.122,8.066,12.801-1.59c0.604-1.583,2.978-5.682,4.01-6.502c1.22-3.898,5.646-3.637,5.243,0.895
	c-1.173,13.27-9.149,24.355-9.727,37.621c-0.21,4.854-7.746,4.873-7.533,0c0.009-0.191,0.035-0.379,0.047-0.57
	c-3.543-14.087-12.637-25.689-18.293-38.906c-1.893-4.426,3.69-6.463,5.603-1.998C507.684,338.789,510.555,340.764,512.592,344.516z
	 M530.495,408.281c0,3.098-2.503,5.607-5.592,5.607c-3.086,0-5.59-2.51-5.59-5.607c0-3.097,2.504-5.607,5.59-5.607
	C527.992,402.674,530.495,405.184,530.495,408.281z M497.39,459.655c0,3.097-2.503,5.605-5.591,5.605
	c-3.087,0-5.593-2.51-5.593-5.605c0-3.097,2.506-5.607,5.593-5.607C494.887,454.048,497.39,456.559,497.39,459.655z
	 M468.631,410.098c0,3.096-2.503,5.605-5.592,5.605s-5.593-2.51-5.593-5.605c0-3.098,2.504-5.607,5.593-5.607
	C466.128,404.49,468.631,407,468.631,410.098z M451.626,424.377c0.648,1.571,1.261,3.152,1.859,4.739
	c2.653,2.874,7.078,8.022,10.29,4.533c2.659-2.892,6.146-5.208,7.62-8.868c1.78-4.426,5.055-4.061,3.946,0.799
	c-1.655,7.249-3.797,13.521-7.322,19.99c-2.461,4.516-3.682,9.864-8.176,12.698c-2.114,1.332-4.847,0.011-5.534-2.258
	c-2.322-7.658-4.591-15.309-7.318-22.815l-0.866-2.331c-0.568-1.499-1.15-2.993-1.764-4.479
	C442.502,421.885,449.795,419.943,451.626,424.377z M471.405,468.566c3.824-1.435,4.167-0.203,4.167-0.203
	c7.153,10.614,15.548,21.123,19.552,18.772c3.441-2.014,9.608-9.313,15.193-17.509c0,0,1.016-1.61,2.53-0.103
	c1.516,1.508,1.311,3.222,1.311,3.222c-6.437,16.48-15.667,41.265-19.64,42.798c-7.652,2.955-17.088-24.779-24.391-44.033
	C470.129,471.512,468.776,469.552,471.405,468.566z M508.634,507.023c0,0,9.541,6.174,12.927,5.872
	c3.386-0.299,9.869-10.241,9.869-10.241s-5.541,28.086-10.157,28.086C516.655,530.74,508.634,507.023,508.634,507.023z
	 M531.014,442.625c-1.919,3.367-3.646,6.692-4.919,10.363c-1.15,3.313-5.487,2.676-6.362-1.209
	c-1.632-7.271-4.989-11.5-8.965-17.639c-0.232-0.357-0.37-0.711-0.471-1.06c-0.731-1.29-1.35-2.605-1.818-3.875
	c-1.698-4.574,3.171-6.531,4.852-2.008c1.223,3.289,6.448,11.031,10.673,9.479c3.792-1.394,5.856-6.963,7.568-10.383
	c2.175-4.354,5.356-2.041,3.187,2.301c-0.591,1.182-0.353,3.273-1.093,4.42c-0.04,0.105-0.063,0.21-0.113,0.316
	C532.113,436.373,532.678,439.702,531.014,442.625z M535.444,456.514c1.617-0.946,4.33-0.529,5.153,1.355
	c1.922,4.395,3.067,9.13,5.74,13.154c2.7,4.067-3.829,7.846-6.506,3.813c-2.694-4.059-3.808-8.738-5.737-13.153
	C533.27,459.797,533.523,457.644,535.444,456.514z M539.114,324.144c-3.653-4.058-5.79-7.398-8.276-12.265
	c-2.374-4.644-3.271-9.89-5.802-14.433c-2.08-3.735,1.769-5.912,4.563-3.815c1.638,0.028,7.293,7.083,9.567,6.454l0.942-0.286
	c1.854-2.252,3.71-4.415,4.611-7.078c1.413-4.173,4.524-2.912,4.447,0.832c0.128,0.398-4.244,24.077-4.466,25.196
	c0.008,0.484-0.792,3.9-1.609,5.078C542.225,326.198,541.279,326.549,539.114,324.144z M544.174,267.259
	c-3.244-6.027-4.234-15.925-10.896-19.033c-4.4-2.054-1.78-6.449,2.595-4.406c6.671,3.112,9.853,6.911,12.938,13.658
	c0,0,4.132,6.356,2.171,10.084C549.732,269.936,545.62,269.949,544.174,267.259z M544.337,139.381
	c-4.813-0.37-7.387-7.971-2.538-7.599c4.561,0.35,7.828-2.388,9.879-6.28c2.271-4.308,7.671-0.913,6.506,3.812
	C556.35,136.762,551.394,139.923,544.337,139.381z M539.735,50.455c17.299,17.592-4.598,22.94-13.388,18.069
	c-0.327-0.182-0.656-0.375-0.983-0.563C542.256,63.468,538.033,57.773,539.735,50.455z M522.698,41.158
	c0.394,2.951-0.104,4.608-4.442,5.441c-7.688,1.474-14.779-2.608-14.779-2.608s10.427,1.185,16.977-4.613
	C522.569,37.505,522.395,38.883,522.698,41.158z M516.661,28.14c-24.178-2.178-27.256,4.271-31.09,7.295
	c-0.027-0.025-0.054-0.05-0.082-0.075C469.534,20.817,492.484,21.118,516.661,28.14z M464.669,58.368
	c-9.418-7.516-17.485-11.171-24.652-11.171c-4.832,0-8.79,1.684-11.68,4.099c-0.441-4.311-0.651-8.437-0.675-11.55
	c0-4.009,6.61-14.389,14.906-14.389c0.798,0,1.614,0.1,2.425,0.298c5.308,1.294,9.765,1.924,13.622,1.923
	c0,0,10.4-0.702,10.4,14.753c0,0-0.963,3.542,3.854,3.542h9.17c0,0,33.375,10.142,33.375,54.415c0,44.271-14.91,40.892-14.91,40.892
	v-11.753c0,0,0-16.114,0-19.919C500.505,104.877,495.402,78.686,464.669,58.368z M471.565,104.31
	c-12.432-2.582-22.113-5.286-29.771-8.008c9.475,1.708,20.586,2.457,33.056,2.911c13.94,0.509,12.162,8.888,12.162,8.888l-6.8-1.309
	C477.546,105.552,474.331,104.884,471.565,104.31z M482.988,143.903c-3.735-1.213-7.833-1.802-11.631-2.168
	c-4.199-0.404-15.615-5.957-27.572-14.725c1.483,0.045,3.011,0.069,4.582,0.069c4.398,0,7.785-0.195,8.955-0.273
	c6.62,0,12.316-0.009,16.968-0.506h12.869v13.428C486.033,140.05,482.988,143.903,482.988,143.903z M495.954,301.959
	c2.928-1.708,2.393-2.198,6.33-9.14c0,0,3.964-1.983,5.032-0.706c1.069,1.277-0.006,3.25-0.006,3.25
	c-4.538,13.95-8.492,29.346-11.87,30.643c-3.378,1.299-12.327-13.444-17.474-29.742c0,0,0.857-2.87,2.71-3.704
	c2.696-1.213,4.444-0.173,4.444-0.173C490.165,301.374,492.548,303.946,495.954,301.959z M479.846,250.437
	c3.197-1.558,6.703,0.229,4.551,3.655c-3.854,6.138-8.014,12.497-13.72,17.067c-2.063,1.651-5.605,1.367-6.296-1.667
	c-1.749-7.692-1.328-15.83-4.378-23.199c-1.86-4.499,5.432-6.441,7.265-2.008c0.632,1.524,1.088,3.085,1.472,4.662
	c1.438,2.484,2.764,3.553,3.607,4.129C475.183,255.005,477.038,251.806,479.846,250.437z M459.968,214.802
	c2.077-1.598,4.855-2.471,6.633-4.163c3.034-2.891,8.285,0.866,5.916,4.577c-2.246,3.519-5.494,5.817-8.982,7.946
	c0.229,1.965-0.567,3.875-2.648,4.449c-1.802,0.498-4.322-0.6-4.634-2.638C455.618,220.82,456.577,217.411,459.968,214.802z
	 M456.805,295.21c-4.327,7.353-8.242,13.52-12.754,20.661c-1.813,2.868-5.808,2.185-6.886-0.902
	c-2.868-8.217-1.756-16.708-1.797-25.364c-0.022-4.873,5.699-4.871,5.724,0c0.002,0.203,0.008,0.405,0.01,0.608
	c0.489,0.439,0.883,2.574,1.109,3.405c1.383,5.055,8.479-1.945,11.25-3.576C456.717,288.124,458.728,291.941,456.805,295.21z
	 M432.834,257.039c1.729-1.795,3.056-4.252,5.002-6.27c1.427-1.48,3.895-1.438,5.326,0c1.471,1.473,1.428,3.862,0,5.341
	c-1.73,1.794-3.057,4.251-5.003,6.27c-1.427,1.479-3.895,1.437-5.325,0C431.363,260.907,431.406,258.518,432.834,257.039z
	 M302.344,68.668c2.453-1.12,5.911-0.451,8.394-0.473c5.661,0.905,10.623,4.302,13.027,9.599c2.403,5.293,2.907,11.576-0.129,16.451
	c-1.647,1.865-3.733,3.443-6.187,4.563c-3.248,1.483-5.641,0.255-6.589-1.83c-0.944-2.084,5.603-4.964,1.912-13.091
	c-3.69-8.126-14.108-6.345-15.028-8.373C296.824,73.483,299.097,70.151,302.344,68.668z M251.662,78.329
	c1.047-4.203,3.74-8.092,8.073-9.865s8.771-1.118,12.452,1.15c1.38,1.229,2.571,2.364,3.313,4.188
	c0.984,2.417,0.065,3.786-1.641,4.483c-1.705,0.697-4.297-2.801-10.944-0.082c-6.648,2.72-4.301,6.297-5.958,6.975
	c-1.661,0.68-3.415,1.135-4.399-1.283C251.812,82.072,251.534,80.175,251.662,78.329z M227.174,95.242
	c3.787-2.999,6.729-4.242,10.907-3.597c1.662,0.561,4.051,1.065,4.345,2.769c0.768,4.441-3.352,2.104-9.164,6.706
	c-5.812,4.602-3.466,8.374-4.958,9.555c-1.49,1.179-3.151,1.456-4.726-0.249c-1.192-1.285-1.553-2.696-1.896-4.3
	C221.642,102.208,223.385,98.242,227.174,95.242z M198.706,131.94c3.137-6.687,6.314-10.397,12.464-12.372
	c2.651-0.369,6.263-1.314,7.822,0.815c4.068,5.545-3.153,5.167-7.969,15.432c-4.815,10.262,0.954,13.815-0.281,16.448
	c-1.235,2.632-3.317,4.144-6.63,2.892c-2.503-0.944-3.953-2.625-5.515-4.584C195.879,145.245,195.564,138.631,198.706,131.94z
	 M185.873,175.838c1.691-6.803,4.11-10.632,9.993-12.842c2.646-0.469,6.15-1.553,8.248,0.513c5.471,5.385-2.058,5.286-4.654,15.727
	c-2.598,10.44,4.167,13.768,3.502,16.447c-0.667,2.676-2.463,4.268-6.166,3.145c-2.795-0.848-4.678-2.471-6.739-4.37
	C186.026,189.242,184.179,182.643,185.873,175.838z M192.613,328.061c-2.147,5.172-7.199,10.659-7.199,10.659l-82.32,145.106
	c-8.093,14.221-27.67,35.041-28.645,31.627c-1.484-5.209,10.286-20.797,12.483-24.215l0.178-0.277l97.372-174.136
	C192.969,311.99,194.762,322.889,192.613,328.061z M186.818,227.137c-0.333-6.777,2.398-12.518,6.809-16.441
	c2.124-1.288,4.047-2.361,6.635-2.488c3.429-0.171,4.734,1.749,4.865,4.415s-5.338,4.507-4.828,14.904
	c0.509,10.396,5.968,8.929,6.095,11.522c0.127,2.597-0.065,5.213-3.495,5.383c-2.588,0.129-5.065-0.415-7.305-1.484
	C190.821,239.479,187.15,233.912,186.818,227.137z M201.735,281.968c-4.333-6.342-5.005-13.568-2.932-20.076
	c1.353-2.552,2.633-4.772,5.135-6.491c3.313-2.277,5.745-1.228,7.448,1.268c1.705,2.496-3.858,7.945,2.789,17.674
	c6.645,9.729,14.223,7.302,10.762,14.426c-1.327,2.732-5.289,2.721-8.148,3.066C209.987,291.424,206.066,288.309,201.735,281.968z
	 M224.69,374.036L136.411,532.5c0,0-23.959,35.807-31.364,32.398c-4.7-2.162,23.155-39.689,39.798-69.144l71.113-131.107
	c0,0,3.145-3.112,7.442,0.767C227.701,369.295,224.69,374.036,224.69,374.036z M241.639,338.834
	c-6.801-0.412-13.739-3.527-18.069-9.867c-4.333-6.342-5.005-13.569-2.933-20.076c1.354-2.552,2.634-4.773,5.135-6.49
	c3.313-2.278,5.745-1.228,7.449,1.267c1.705,2.496-2.652,7.642,3.995,17.371c6.645,9.73,11.211,4.947,12.871,7.375
	c1.659,2.43,3.014,5.076-0.299,7.354C247.286,337.484,244.498,338.488,241.639,338.834z M266.985,408.356L165.429,590.113
	l-0.191,0.354c-0.087,0.172-18.563,29.9-28.745,29.9c-4.882,0,6.02-14.279,20.397-38.443l98.652-177.551
	c0,0,3.276-7.655,8.435-3.773C269.134,404.479,266.985,408.356,266.985,408.356z M269.36,375.576
	c-6.967-4.519-10.171-12.01-10.811-19.375c0.289-3.115,0.39-6.474,2.174-9.236c2.359-3.66,4.147-2.823,6.887-1.046
	c2.742,1.778-0.622,8.518,10.066,15.45c10.687,6.936,15.267,0.824,17.935,2.554c2.668,1.733,5.121,3.808,2.762,7.47
	c-1.78,2.762-4.147,4.932-6.86,6.474C284.551,380.301,276.325,380.096,269.36,375.576z M309.61,436.947L194.662,644.738
	c-15.581,21.325-23.001,30.75-32.188,29.758c-1.02-0.111,8.833-13.492,22.072-35.021l0.133-0.215l112.763-204.696
	c0,0,2.152-8.65,11.911-7.228C315.547,428.236,309.61,436.947,309.61,436.947z M338.553,401.948
	c-6.077,3.858-13.85,4.851-21.048,1.981c-7.197-2.867-12.17-8.937-13.95-15.925c-0.232-3.075,0.21-6.25,1.422-9.308
	c1.604-4.052,3.206-4.799,6.038-3.67s-0.135,9.807,10.909,14.207c11.044,4.402,18.385-2.534,21.144-1.436
	c2.758,1.1,2.42,2.352,0.818,6.402C342.675,397.26,340.824,399.869,338.553,401.948z M360.538,457.548
	c-2.389,4.519-8.969,19.04-12.187,24.975L226.851,701.17c-5.934,8.914-24.564,30.996-33.409,30.996
	c-3.303,0,7.663-8.605,22.148-35.06c16.589-30.295,126.302-228.174,133.916-241.783c0,0,6.575-7.932,9.886-8.234
	C368.434,446.258,360.538,457.548,360.538,457.548z M402.818,402.081c-0.587,3.462-1.956,6.597-3.897,9.267
	c-5.591,5.367-13.644,8.108-21.979,6.688c-8.332-1.419-15.034-6.67-18.543-13.583c-0.957-3.164-1.217-6.58-0.631-10.043
	c0.774-4.586,2.186-6.606,5.465-6.049c3.281,0.56,2.242,11.17,15.03,13.346c12.788,2.178,19.493-8.176,22.686-7.631
	C404.141,394.619,403.594,397.494,402.818,402.081z M404.58,368.591c-10.279-0.96-19.566-2.104-28.003-3.426
	c-60.039-9.411-77.204-27.808-106.619-52.169c-45.405-37.6-51.229-90.716-51.229-132.791c0-43.891,15.319-71.45,58.521-91.701
	c2.137-1.001,10.884-0.676,13.257,0.574c2.804,1.476,3.76,6.18-1.466,7.313c-55.862,12.021-58.258,83.814-58.258,83.814
	c0,77.32,22.485,140.988,151.356,163.384c7.927,1.377,10.896,2.596,19.646,3.654c2.392,2.643,2.619,5.931,2.619,9.51
	C404.407,361.48,408.497,365.709,404.58,368.591z M406.771,320.805c-0.37,0.519-0.507,2.105-0.978,2.373
	c-1.219,3.156-5.212,3.689-5.865-0.328c-0.471-2.889,0.614-6.21,2.22-8.742c1.829-2.883,4.043-5.941,3.894-5.75
	c3.426-4.407,3.428-7.941,8.176-11.048c2.581-1.689,5.744-0.917,5.97,1.75c0.364,4.297-4.31,7.572-6.62,10.91
	C411.011,313.666,409.379,317.146,406.771,320.805z M413.209,374.109c-0.681-8.103,0.47-13.229,0.948-14.152
	c2.759-5.311,5.045-10.121,9.629-14.027c2.168-1.846,6.903-0.944,6.431,2.672c-1.372,10.52-8.859,18.26-11.418,28.326
	C417.766,380.992,413.571,378.413,413.209,374.109z M428.426,422.6c-1.726,1.826-3.438,1.843-4.709-0.157
	c-4.193-6.603-6.267-12.748-7.289-20.428c-0.644-4.816,3.581-5.964,4.215-1.209c0.102,0.77,2.632,2.14,2.76,2.898
	c0.183,0.115,4.284,0.229,4.459,0.379c1.476,1.271,7.445-11.528,9.127-13.715c1.576-2.049,3.269-7.283,5.313-5.604
	c5.224,4.284-0.763,12.723-3.08,16.95C435.334,408.802,434.014,416.688,428.426,422.6z M442.705,464.139
	c-1.339,4.3-1.64,11.356-5.442,13.769c-4.121,2.608-6.391-3.933-2.294-6.525c2.17-1.373,0.89-6.719,1.68-9.25
	C438.092,457.496,444.158,459.477,442.705,464.139z M314.564,861.24c0.297,0.737,8.31,17.349-2.65,17.349
	c-10.961,0-18.006-1.785-18.006-7.638l-0.042-52.622c0-5.307,5.286,1.714,5.286,1.714c0.521,4.308,1.761,9.061,3.938,14.274
	C312.253,856.271,313.278,858.953,314.564,861.24z M380.003,759.875c1.994,2.574,6.462,4.689,8.738,7.027
	c2.471,2.534-2.278,22.35-12.866,22.35c-8.3-4.752-47.994-0.887-47.994-5.807C327.881,783.445,379.27,758.93,380.003,759.875z
	 M396.146,666.447l-15.756,18.782c0,0-15.7,18.056-29.76,36.779c-27.316,36.381-38.378,60.389-39.854,63.922
	c-1.474,3.533-21.181,5.191-16.99-0.266c4.19-5.459,13.21-16.879,19.331-27.686l55.846-100.07c3.574-4.746,2.085-7.93,4.506-14.785
	c4.17-11.809,22.677-10.4,22.677-3.957V666.447z M438.84,591.541c0,0-30.158,31.789-98.393,41.789c0,0,40.067-30.836,47.811-43.855
	c0,0,17.204-11.821,0.583,11.941c0,0-11.619,16.975,20.781-1.186C409.622,600.229,444.995,582.898,438.84,591.541z M424.314,573.643
	c-0.615-8.643,7.387-25.926,7.387-25.926c0,13.834,16.314,8.332,16.314,8.332S424.931,582.285,424.314,573.643z M448.016,498.023
	c0,0,9.541,11.11,12.312,12.034c2.771,0.927,12.313-7.403,12.313-7.403s-11.389,30.862-16.007,29.938
	C452.017,531.666,448.016,498.023,448.016,498.023z M452.457,886.618c0,0-22.783,33.725-42.076,33.725
	c-4.884,0-9.147-0.808-12.776-2.414c29.921-11.081,50.646-38.95,61.723-83.109c11.875-47.332,13.947-138.736,14.059-208.56
	c0,0,10.539-0.998,10.539,12.625c-0.224,63.058-2.383,151.445-13.243,198.518C466.243,856.629,460.155,873.056,452.457,886.618z
	 M514.612,907.178c-6.854,8.511-12.57,18.576-19.661,18.576c-7.089,0-15.986-11.15-23.885-19.431
	c-2.646-2.775-4.38-8.52-3.313-10.096c0,0,4.619-7.06,18.221,8.854c0,0,9.306,11.89,19.645-2.883
	c8.973-12.816,10.952-7.646,10.952-7.646C517.31,895.835,516.892,904.35,514.612,907.178z M582.825,918.955
	c-3.248,0.924-6.551,1.388-9.895,1.388c-23.568,0-44.156-35.777-44.156-35.777c-26.21-51.529-23.87-159.188-23.927-245.681
	c6.324-16.838,10.832-8.922,10.832-8.922C515.714,754.844,515.157,887.639,582.825,918.955z M690.082,878.26
	c-13.619,10.731-24.097,0.55-24.097,0.55l-1.006-7.832l2.165-6.121c0.051-0.152,3.899-3.599,14.771-29.648l4.136-13.795
	c3.351,2.877,1.912,7.107,1.912,7.107v34.648l0.648,1.771C691.247,872.111,690.525,874.459,690.082,878.26z M676.493,763.316
	l13.259,21.401c0,0,7.489,8.51-0.499,11.014c-7.987,2.503-11.482-6.01-11.482-6.01l-40.203-61.414
	c-15.633-19.793-32.804-38.793-32.804-38.793s-7.37-7.422-11.363-8.922c-3.994-1.502-4.492-11.518-4.492-11.518V648.05
	c0,0,2-14.522,12.979-7.008c10.979,7.518,8.576,5.75,13.8,21.939C622.948,685.492,676.493,763.316,676.493,763.316z
	 M588.065,603.271c-16.621-23.769,0.582-11.945,0.582-11.945c7.742,13.02,40.871,43.854,40.871,43.854
	c-68.232-9.996-98.089-41.789-98.089-41.789c-6.157-8.643,29.218,8.693,29.218,8.693
	C606.225,626.727,588.065,603.271,588.065,603.271z M554.822,573.023c0,0-15.696,2.059-26.777-11.474
	c0,0,13.426,1.596,13.542-15.686C541.586,545.865,556.054,566.232,554.822,573.023z M565.513,405.319
	c-0.146,7.99-1.495,15.661-4.245,23.083c-0.087,0.229-0.194,0.431-0.306,0.628c-0.222,3.399-5.062,4.759-6.852,1.957
	c-0.012-0.015-0.019-0.033-0.03-0.05c-0.071-0.116-0.148-0.225-0.211-0.354c-0.175-0.314-0.326-0.659-0.418-1.073
	c-0.08-0.364-0.144-0.729-0.212-1.097c-2.359-9.326-3.576-17.309-9.008-25.41c-2.168-3.236-0.563-5.979,2.397-5.041
	c0.836,0.012,1.996,0.318,2.768,1.069l5.09,6.605c0,0,3.651,3.254,7.979-3.254c0,0,2.597-4.507,3.032-2.06
	C565.52,400.334,566.497,403.637,565.513,405.319z M569.605,382.593c-4.372,5.095-5.822,0.073-6.45-4.017
	c-1.367-8.906-1.367-16.58-7.118-24.041l-1.729-2.659c-2.148-2.802-1.176-7.618,2.565-5.521c7.072,3.964,11.767,8.809,12.979,17.117
	C570.631,368.793,573.436,378.129,569.605,382.593z M572.111,325.365c-0.161-4.578-2.776-8.516-5.865-11.716
	c-3.377-3.501,1.944-8.848,5.327-5.342c4.517,4.68,7.837,10.43,8.072,17.058C579.818,330.238,572.283,330.223,572.111,325.365z
	 M615.032,415.617c-8.336,1.419-16.391-1.322-21.979-6.689c-1.941-2.67-3.312-5.805-3.897-9.267
	c-0.774-4.587-1.321-7.462,1.871-8.005c3.192-0.545,9.896,9.809,22.687,7.631c12.786-2.176,11.748-12.786,15.027-13.346
	c3.28-0.559,4.688,1.463,5.466,6.049c0.588,3.464,0.325,6.879-0.632,10.043C630.067,408.945,623.365,414.198,615.032,415.617z
	 M768.412,697.41c14.486,26.453,19.993,28.791,16.69,28.791c-8.845,0-22.016-15.814-27.951-24.729L635.65,482.824
	c-3.219-5.935-9.798-20.455-12.186-24.976c0,0-7.895-11.289,1.146-10.459c3.311,0.306,9.886,8.234,9.886,8.234
	C642.111,469.236,751.823,667.115,768.412,697.41z M654.156,395.294c-2.423-2.079-4.394-4.69-5.687-7.747
	c-1.71-4.051-2.066-5.303,0.873-6.402s10.767,5.838,22.541,1.436c11.774-4.4,8.61-13.078,11.63-14.207s4.727-0.382,6.437,3.669
	c1.293,3.058,1.767,6.233,1.519,9.31c-1.897,6.987-7.2,13.057-14.873,15.924C668.921,400.145,660.637,399.152,654.156,395.294z
	 M802.504,642.854l0.132,0.215c13.24,21.528,23.093,34.912,22.073,35.022c-9.188,0.992-16.607-8.434-32.188-29.76L676.668,440.539
	c0,0-5.032-8.708,1.16-9.61c9.76-1.423,11.911,7.229,11.911,7.229L802.504,642.854z M626.403,364.68
	c-13.05,2.209-28.309,3.954-46.454,5.201c-1.038-2.223-0.958-4.63-0.958-7.156c0-5.851,2.4-11.096,7.265-14.739
	c9.047-1.005,17.615-2.187,25.741-3.53c130.418-21.586,145.571-85.911,145.571-164.25c0-35.285-14.904-61.003-40.908-79.44
	c0,0-9.15-10.556,2.481-4.968c14.381,6.909,27.162,15.01,35.9,29.054c9.314,14.97,14.58,33.188,14.58,55.354
	c0,47.865-5.431,97.042-44.82,132.469C697.716,337.035,682.552,355.172,626.403,364.68z M829.747,587.816
	c14.381,24.159,25.279,38.442,20.399,38.442c-10.183,0-28.66-29.729-28.747-29.901l-0.19-0.354L719.653,414.247
	c0,0-2.147-3.879,3.008-7.759c5.159-3.879,8.436,3.775,8.436,3.775L829.747,587.816z M729.734,368.619
	c-7.425,4.52-16.196,4.725-23.619,2.29c-2.891-1.543-5.414-3.712-7.313-6.474c-2.517-3.662,0.099-5.738,2.943-7.47
	c2.844-1.729,7.728,4.382,19.12-2.554c11.396-6.933,7.81-13.671,10.731-15.45c2.922-1.777,4.827-2.615,7.344,1.046
	c1.901,2.762,2.008,6.121,2.317,9.236C740.575,356.609,737.161,364.101,729.734,368.619z M741.732,331.291
	c-3.943-1.889-2.569-4.508-0.833-6.945c1.733-2.438,7.283,1.723,14.237-8.041c6.956-9.765,1.622-14.288,3.405-16.792
	c1.783-2.504,4.493-3.698,8.442-1.809c2.979,1.422,4.595,3.424,6.315,5.733c2.808,5.998,2.523,12.904-2.012,19.267
	c-4.529,6.365-12.263,9.883-20.022,10.83C747.972,333.438,744.711,332.715,741.732,331.291z M842.483,498.898
	c16.645,29.452,44.498,66.979,39.799,69.143c-7.404,3.408-31.363-32.398-31.363-32.398l-88.279-158.463c0,0-3.011-4.741,1.288-8.62
	c4.3-3.879,7.443-0.768,7.443-0.768L842.483,498.898z M776.56,286.956c-3.296-0.094-7.833,0.24-9.535-2.241
	c-4.442-6.47,4.398-4.789,11.352-14.552c6.954-9.764,0.221-14.476,2.004-16.98c1.781-2.504,4.497-3.697,8.441-1.811
	c2.978,1.426,4.594,3.427,6.314,5.734c2.81,5.999,2.526,12.904-2.009,19.268C788.595,282.738,784.315,286.011,776.56,286.956z
	 M902.528,496.117l0.178,0.274c2.196,3.416,13.97,19.009,12.484,24.218c-0.976,3.414-20.552-17.406-28.646-31.632l-82.32-145.104
	c0,0-5.051-5.488-7.199-10.66c-2.146-5.172-0.355-16.07,8.131-11.235L902.528,496.117z M950.628,463.077
	c-16.481,11.946-53.712-67.318-65.055-87.19l-52.871-93.102c0,0-14.187-22.846-12.466-33.621c1.72-10.776,5.308-4.462,6.878-1.724
	l109.611,190.866C938.172,440.873,951.875,462.175,950.628,463.077z"/>
</svg>
