<svg width="512" height="512" viewBox="0 0 512 512" fill="none" xmlns="http://www.w3.org/2000/svg">
<path d="M95 109.774C110.152 106.108 133.612 104 154.795 104C212.046 104 246.32 123.928 246.32 174.646C246.32 205.746 233.737 226.264 214.005 237.437L261.765 318.946C258.05 321.632 250.035 323.176 238.864 323.176C226.282 323.176 217.987 321.672 211.982 318.946L172.225 248.3H167.645C157.789 248.305 147.945 247.601 138.18 246.192V319.255C134.172 321.672 127.022 323.176 116.73 323.176C106.73 323.176 99.2874 321.659 95 319.255V109.774ZM137.643 207.848C145.772 209.263 153.997 209.968 162.235 209.956C187.12 209.956 202.285 200.556 202.285 177.057C202.285 152.886 186.268 142.949 157.668 142.949C150.956 142.918 144.255 143.515 137.643 144.735V207.848Z" fill="#F25A5A"/>
<path d="M428.529 329.244C428.529 365.526 410.145 375.494 396.306 382.195C360.972 399.32 304.368 379.4 244.206 373.338C189.732 366.214 135.706 361.522 127.309 373.738C124.152 376.832 123.481 386.798 127.309 390.862C138.604 402.85 168.061 394.493 188.919 390.714C195.391 389.694 201.933 392.099 206.079 397.021C210.226 401.944 211.349 408.637 209.024 414.58C206.699 420.522 201.28 424.811 194.809 425.831C185.379 427.264 175.85 427.989 166.306 428C145.988 428 120.442 424.495 105.943 409.072C98.7232 401.4 91.3266 387.78 97.0271 366.465C107.875 326.074 172.807 336.052 248.033 343.633C300.41 348.907 357.23 366.465 379.934 350.343C385.721 346.234 396.517 337.022 390.698 329.244C384.879 321.467 375.353 325.684 362.838 325.684C300.152 325.684 263.238 285.302 263.238 217.916C263.247 167.292 284.176 131.892 318.287 115.09C333.109 107.789 350.421 104 369.587 104C386.292 104 403.269 106.931 414.11 113.366C420.847 123.032 423.778 140.305 422.306 153.201C408.247 146.466 395.36 142.949 378.669 142.949C337.365 142.949 308.947 164.039 308.947 214.985C308.947 265.932 337.065 286.149 376.611 286.149C387.869 286.035 403.1 284.67 422.306 282.053C426.455 297.498 428.529 313.228 428.529 329.244Z" fill="#F25A5A"/>
</svg>
