<svg width="64" height="64" viewBox="0 0 64 64" fill="none" xmlns="http://www.w3.org/2000/svg">
  <path d="M18 20.5L22.5 54H49.5L54 20.5H18Z" fill="#95BF47"/>
  <path d="M24 20.5C24 13.596 29.596 8 36.5 8C43.404 8 49 13.596 49 20.5" stroke="#5E8E3E" stroke-width="4" stroke-linecap="round"/>
  <path d="M39.145 24.006C39.145 24.006 37.53 22.803 34.438 22.803C30.866 22.803 29.143 25.099 29.143 27.332C29.143 30.413 33.18 31.487 33.18 33.9C33.18 35.669 31.803 36.81 29.856 36.81C27.214 36.81 25.831 35.136 25.831 35.136L24 40.966C24 40.966 26.019 42.791 29.922 42.791C33.969 42.791 37.074 40.441 37.074 35.977C37.074 32.48 32.98 31.189 32.98 28.998C32.98 27.659 34.474 26.247 37.28 26.247C39.444 26.247 40.476 27.247 40.476 27.247L39.145 24.006Z" fill="white"/>
</svg>
